<?xml version="1.0" encoding="utf-8"?>
<!-- Generator: Adobe Illustrator 21.0.2, SVG Export Plug-In . SVG Version: 6.00 Build 0)  -->
<svg version="1.1" id="Layer_1" xmlns="http://www.w3.org/2000/svg" xmlns:xlink="http://www.w3.org/1999/xlink" x="0px" y="0px"
	 viewBox="0 0 310 72" enable-background="new 0 0 310 72" xml:space="preserve">
<g>
	<g>
		<path fill="none" d="M0.3,72.6c0-24.2,0-48.3,0-72.5c103.4,0,206.7,0,310.1,0c0,24.2,0,48.3,0,72.5
			C207.1,72.6,103.7,72.6,0.3,72.6z M18.9,51.7c0.3-0.1,0.4-0.3,0.6-0.3c5.4-0.2,10.8-0.3,16.2-0.4c0.7,0,1.6,0.6,2,1.2
			c2.5,3.6,5.3,6.8,8.9,9.4c6.6,4.9,13.7,5.8,21.4,3.7c8.6-2.4,15.5-7.5,21-14.4c0.9-1.1,1.7-2,3.5-1.1c-0.6,0.8-1.1,1.3-1.6,1.9
			c-1.1,1.4-1.3,2.3,0.8,2.8c1.6,0.4,3.1,1,4.5,1.8c1.8,1.1,3.2,0.7,4.6-0.7c0.6-0.6,1.4-1.5,2.2-1.5c6.7-0.4,13.3-2,20.2-1.2
			c12.1,1.4,24.4,2,36.6,3c2.2,0.2,3.8-0.9,5.2-2.3c1.5-1.5,1.3-2.3-0.7-3.1c-1.3-0.5-2.7-1-4-1.5c0.1-0.3,0.1-0.6,0.2-1
			c1.7,0,3.4,0,5,0c12.4,0.2,24.8,0.2,37.3,0.5c8.5,0.2,16.9,0.6,25.4,1.1c6.3,0.4,12.6,1,18.9,1.5c10.4,0.8,20.8,1.6,31.2,2.5
			c7.6,0.6,15.1,1.4,22.7,2.1c2.6,0.2,4.2-1.3,5.4-3.8c-0.9-0.2-1.5-0.4-2.2-0.5c-16.7-1.6-33.4-3.3-50.1-4.6
			c-13.1-1-26.4-1.2-39.3-3.8c-2.5-0.5-5.1-1.4-7.3-2.8c-5.1-3.1-10.4-3.9-16.3-2.8c-4.8,0.9-9.6,1.4-14.5,1.8
			c-1,0.1-2.7-0.5-3.1-1.3c-1.2-2.4-3.9-2.6-5.5-2.7c-3.8-0.2-7.7,0.8-10.2,4.3c-0.5,0.6-1,1.9-0.7,2.2c0.5,0.6,1.6,1.1,2.4,1
			c2.1-0.3,4.2-0.9,6.2-1.6c1.7-0.6,3-0.9,4.2,0.9c0.5,0.6,1.8,1,2.7,0.9c5.4-0.3,10.7-0.8,16.1-1.3c2.1-0.2,4.3-0.7,6.4-0.5
			c2.7,0.3,5.3,1.2,7.9,1.8c-0.1,0.2-0.1,0.3-0.2,0.5c-19.6,0-39.2,0-58.8,0c4.2-3.1,8.5-5.4,12.4-8.3c3.3-2.5,6.5-5.3,9.1-8.6
			c2.9-3.6,1.9-7.2-2.1-9.4c-3.4-1.9-7-3.6-10.7-4.8c-10.8-3.5-21.9-3.2-33.1-1.7c-9.2,1.3-17.8,4.3-25.5,9.6
			c-1.4,1-2.1,0.6-3.2-0.5c-2.6-2.5-5.2-5-8.2-7C71.4,5.8,58.9,2.1,45.5,1.8C38.1,1.6,31,2.9,24.1,5.5c-1.6,0.6-3.3,1.2-3.7,3.6
			c0.9-0.2,1.6-0.3,2.2-0.5c16.1-5.3,31.9-4.5,47.4,2.3c6,2.6,11.7,5.7,16.4,10.4c3,3,2.9,3,0.6,6.5c-2.9,4.4-2.5,7.5,1.2,11.2
			c0.5,0.5,1,1.2,1.5,1.7c-0.1,0.2-0.3,0.4-0.4,0.6c-1.4-0.2-2.8-0.7-4.2-0.7c-1.1,0-2.6,0.1-3.3,0.7c-1.9,1.8-3.9,1.7-6.2,1.6
			c-10-0.2-20-0.4-30.1-0.5c-1.3,0-2.8,0.8-3.8,1.7c-2.2,2.1-2.2,2.2-3.8-0.3c-1.9-3-3.7-6-5.6-8.9c-1.3-1.9-3-2.2-4.8-0.6
			c-1.5,1.4-3,2.8-4.3,4.4c-2.8,3.6-4.6,8-8.6,10.7c-0.4,0.2-0.5,0.8-0.9,1.3c0.8,0.4,1.5,0.7,2.2,1c-0.1,1.4-0.3,2.6-0.4,3.9
			C18.6,55.5,19.3,54.7,18.9,51.7z M90.9,65.2c-1.3-1-2.5-2.2-2.7-2.1c-1.4,0.9-2.6,2.2-3.8,3.3c0.7,0.6,1.7,2,2.1,1.8
			C87.9,67.7,89.1,66.5,90.9,65.2z"/>
		<path class="fill" fill="#000" d="M18.9,51.7c0.4,2.9-0.3,3.8-3.3,3.9c0.1-1.3,0.2-2.5,0.4-3.9c-0.7-0.3-1.3-0.6-2.2-1c0.3-0.5,0.5-1.1,0.9-1.3
			c4-2.7,5.8-7,8.6-10.7c1.2-1.6,2.8-3,4.3-4.4c1.8-1.6,3.5-1.3,4.8,0.6c2,2.9,3.7,5.9,5.6,8.9c1.6,2.5,1.6,2.4,3.8,0.3
			c1-0.9,2.5-1.7,3.8-1.7c10,0,20,0.2,30.1,0.5c2.3,0.1,4.3,0.2,6.2-1.6c0.7-0.7,2.2-0.7,3.3-0.7c1.4,0,2.8,0.4,4.2,0.7
			c0.1-0.2,0.3-0.4,0.4-0.6c-0.5-0.6-0.9-1.2-1.5-1.7c-3.8-3.7-4.1-6.8-1.2-11.2c2.3-3.5,2.4-3.5-0.6-6.5
			c-4.7-4.7-10.4-7.7-16.4-10.4C54.4,4.1,38.6,3.3,22.5,8.6c-0.6,0.2-1.3,0.3-2.2,0.5c0.4-2.4,2.2-3,3.7-3.6
			c6.9-2.6,14-3.9,21.4-3.7c13.4,0.3,25.9,4,37.1,11.4c3,1.9,5.6,4.5,8.2,7c1.1,1.1,1.9,1.4,3.2,0.5c7.7-5.4,16.2-8.4,25.5-9.6
			c11.1-1.5,22.2-1.9,33.1,1.7c3.7,1.2,7.3,2.9,10.7,4.8c4,2.2,5,5.8,2.1,9.4c-2.6,3.2-5.8,6.1-9.1,8.6c-3.9,2.9-8.2,5.2-12.4,8.3
			c19.6,0,39.2,0,58.8,0c0.1-0.2,0.1-0.3,0.2-0.5c-2.6-0.6-5.2-1.5-7.9-1.8c-2.1-0.2-4.2,0.3-6.4,0.5c-5.4,0.4-10.7,0.9-16.1,1.3
			c-0.9,0.1-2.3-0.3-2.7-0.9c-1.2-1.8-2.5-1.5-4.2-0.9c-2,0.7-4.1,1.3-6.2,1.6c-0.8,0.1-1.9-0.4-2.4-1c-0.3-0.3,0.3-1.6,0.7-2.2
			c2.5-3.5,6.4-4.5,10.2-4.3c1.7,0.1,4.3,0.2,5.5,2.7c0.4,0.8,2.1,1.3,3.1,1.3c4.8-0.5,9.7-0.9,14.5-1.8c5.8-1.1,11.1-0.3,16.3,2.8
			c2.2,1.3,4.8,2.3,7.3,2.8c13,2.7,26.2,2.8,39.3,3.8c16.7,1.3,33.4,3,50.1,4.6c0.6,0.1,1.3,0.3,2.2,0.5c-1.2,2.5-2.8,4-5.4,3.8
			c-7.6-0.6-15.1-1.4-22.7-2.1c-10.4-0.9-20.8-1.6-31.2-2.5c-6.3-0.5-12.6-1.2-18.9-1.5c-8.5-0.5-16.9-0.9-25.4-1.1
			c-12.4-0.3-24.8-0.4-37.3-0.5c-1.7,0-3.4,0-5,0c-0.1,0.3-0.1,0.6-0.2,1c1.3,0.5,2.7,1,4,1.5c2.1,0.8,2.3,1.5,0.7,3.1
			c-1.4,1.4-3,2.5-5.2,2.3c-12.2-1-24.4-1.6-36.6-3c-6.9-0.8-13.5,0.8-20.2,1.2c-0.8,0-1.6,0.9-2.2,1.5c-1.4,1.4-2.7,1.8-4.6,0.7
			c-1.4-0.8-2.9-1.5-4.5-1.8c-2.2-0.5-2-1.5-0.8-2.8c0.5-0.6,1-1.2,1.6-1.9c-1.8-1-2.6-0.1-3.5,1.1c-5.5,6.9-12.4,12-21,14.4
			c-7.7,2.2-14.8,1.2-21.4-3.7c-3.6-2.7-6.3-5.9-8.9-9.4c-0.4-0.6-1.3-1.2-2-1.2c-5.4,0-10.8,0.2-16.2,0.4
			C19.3,51.5,19.2,51.6,18.9,51.7z M125.5,44.4c7.9,0.9,15.4-2.6,22.7-6.5c4-2.1,7.8-4.5,11.6-7c4.8-3.1,4.9-7.3,0.1-10.4
			c-2.2-1.4-4.7-2.5-7.1-3.4c-17.1-6-34.1-4.3-50.8,1.5c-2.5,0.9-4.8,2.3-7,3.7c-0.6,0.4-0.9,1.7-0.9,2.5c0.4,3.3,1.3,6.5,1.4,9.8
			c0.1,2.3,0.8,3.4,2.8,4.2C106.8,42.3,115.5,44.5,125.5,44.4z M87.6,49.3c-14.9,0.6-29.5,1.1-44.3,1.6C45.6,57.5,55,62.6,64,62.7
			C72.4,62.7,85.6,55.5,87.6,49.3z M21,45.8c0.1,0.3,0.1,0.6,0.2,0.9c3.7,0,7.4,0,11-0.1c0.1,0,0.6-1.6,0.3-2.2c-1-2-2.3-4-3.5-5.9
			c-1-1.6-2.2-1.9-3.4-0.2C24.1,40.7,22.6,43.3,21,45.8z M91.8,34.5c0.3-0.1,0.6-0.2,0.9-0.3c-0.7-2.4-1.3-4.7-2.2-7.7
			C88.2,30,89,33.1,91.8,34.5z"/>
		<path class="fill" fill="#fff" d="M90.9,65.2c-1.8,1.3-3.1,2.4-4.5,3.1c-0.3,0.2-1.4-1.2-2.1-1.8c1.3-1.1,2.4-2.4,3.8-3.3C88.4,63,89.6,64.2,90.9,65.2z"/>
		<path fill="none" d="M125.5,44.4c-10,0.1-18.7-2-27.2-5.6c-2-0.8-2.7-1.9-2.8-4.2c-0.1-3.3-1-6.5-1.4-9.8
			C94,24,94.4,22.7,95,22.3c2.2-1.4,4.5-2.9,7-3.7c16.8-5.8,33.7-7.5,50.8-1.5c2.5,0.9,5,2,7.1,3.4c4.7,3.1,4.7,7.3-0.1,10.4
			c-3.8,2.5-7.6,4.9-11.6,7C140.8,41.8,133.4,45.3,125.5,44.4z"/>
		<path fill="none" d="M87.6,49.3c-2,6.3-15.2,13.5-23.7,13.4c-9-0.1-18.4-5.2-20.6-11.8C58.1,50.4,72.7,49.8,87.6,49.3z"/>
		<path fill="none" d="M21,45.8c1.6-2.5,3.1-5.1,4.7-7.5c1.1-1.7,2.4-1.4,3.4,0.2c1.2,1.9,2.5,3.9,3.5,5.9
			c0.3,0.6-0.2,2.2-0.3,2.2c-3.7,0.1-7.3,0.1-11,0.1C21.2,46.4,21.1,46.1,21,45.8z"/>
		<path fill="none" d="M91.8,34.5c-2.8-1.4-3.6-4.4-1.2-8c0.8,3,1.5,5.3,2.2,7.7C92.4,34.3,92.1,34.4,91.8,34.5z"/>
	</g>
</g>
</svg>
